<?xml version="1.0" standalone="no"?>
<!DOCTYPE svg PUBLIC "-//W3C//DTD SVG 20010904//EN"
 "http://www.w3.org/TR/2001/REC-SVG-20010904/DTD/svg10.dtd">
<svg version="1.0" xmlns="http://www.w3.org/2000/svg" class="card" face="AC"
 width="2.5in" height="3.5in" viewBox="0 0 712.000000 1008.000000"
 preserveAspectRatio="xMidYMid meet">

<g transform="translate(0.000000,1008.000000) scale(0.100000,-0.100000)"
fill="#000000" stroke="none">
<path d="M206 10000 c-53 -16 -105 -61 -131 -113 l-25 -51 2 -4810 3 -4811 5
4820 c5 4544 6 4822 22 4852 23 41 84 91 128 103 53 15 6651 13 6701 -1 47
-14 104 -60 127 -102 16 -30 17 -308 22 -4852 l5 -4820 3 4811 2 4810 -25 51
c-27 54 -78 97 -136 113 -43 13 -6662 12 -6703 0z"/>
<path d="M690 9591 c0 -11 9 -23 20 -26 44 -14 50 -48 50 -305 l0 -241 -25
-24 c-13 -14 -35 -25 -48 -25 -27 0 -61 33 -72 70 -12 41 -34 70 -55 70 -25 0
-43 -34 -34 -63 12 -39 64 -107 94 -122 67 -35 152 -8 183 58 14 30 17 71 17
266 0 246 9 303 51 316 10 4 19 15 19 26 0 17 -8 19 -100 19 -92 0 -100 -2
-100 -19z"/>
<path d="M3571 9429 c-96 -18 -224 -113 -298 -221 -63 -93 -96 -112 -176 -105
-34 3 -100 17 -147 32 -238 76 -390 -17 -390 -241 0 -119 32 -210 110 -314 84
-112 108 -197 95 -334 -6 -67 -10 -78 -41 -110 -29 -30 -34 -42 -34 -83 l0
-48 -55 -24 c-47 -20 -59 -22 -87 -12 -18 7 -66 18 -106 26 -41 8 -88 23 -105
33 -52 31 -120 49 -322 83 -215 35 -268 35 -350 -6 -46 -22 -54 -30 -65 -68
-18 -65 0 -119 59 -176 54 -53 161 -119 241 -151 29 -12 71 -38 92 -60 21 -21
80 -60 131 -86 51 -26 152 -85 226 -132 73 -47 197 -122 275 -167 l141 -81 -2
-45 -3 -44 15 33 c8 17 18 32 24 32 16 0 159 -99 205 -143 130 -124 148 -228
92 -549 -25 -146 -28 -152 -102 -231 -27 -29 -69 -75 -93 -102 -24 -28 -86
-94 -139 -147 -89 -92 -96 -97 -126 -90 -93 21 -146 -4 -146 -69 0 -89 119
-95 173 -9 9 14 38 36 64 50 26 14 74 42 106 63 31 21 57 34 57 29 0 -12 -126
-199 -174 -257 -22 -27 -81 -97 -130 -155 -124 -144 -132 -158 -40 -65 144
145 302 356 380 505 24 47 67 126 94 175 l50 90 0 -65 c0 -83 23 -134 63 -138
l27 -3 -24 -42 c-13 -23 -32 -65 -41 -93 -28 -81 -167 -215 -445 -429 -134
-103 -150 -117 -95 -84 45 26 183 130 263 197 28 25 52 43 52 40 0 -11 -130
-290 -197 -424 -66 -131 -82 -154 -104 -159 -15 -4 -37 -14 -48 -24 -24 -21
-44 -68 -35 -83 4 -6 12 4 18 23 23 71 144 93 139 25 -1 -15 -14 -44 -29 -63
-27 -36 -46 -39 -99 -18 -18 8 -18 7 -6 -8 41 -51 151 18 151 95 0 18 21 39
86 88 47 36 119 100 160 143 41 42 76 77 78 77 2 0 6 -53 10 -117 7 -118 31
-263 66 -403 11 -41 35 -147 55 -235 20 -88 76 -302 125 -475 63 -225 92 -344
100 -415 13 -119 62 -383 96 -515 32 -126 31 -194 -11 -412 -59 -314 -47 -280
-115 -313 -33 -16 -58 -30 -57 -32 2 -1 27 3 55 11 29 7 54 10 57 6 5 -8 -24
-193 -55 -347 -18 -89 -27 -114 -41 -118 -21 -7 -25 -36 -8 -64 14 -21 2 -145
-31 -326 -11 -60 -20 -128 -20 -151 0 -26 -10 -55 -28 -85 -15 -24 -49 -98
-76 -164 -50 -127 -65 -151 -145 -235 -47 -50 -52 -52 -88 -46 -49 9 -94 58
-123 136 -28 74 -21 118 26 183 30 42 38 47 73 47 48 0 81 -30 61 -55 -9 -11
-22 -14 -42 -10 -34 8 -35 2 -6 -25 33 -31 74 -26 114 14 80 80 15 166 -126
166 -102 0 -162 -50 -201 -168 -54 -161 -19 -275 122 -397 44 -38 100 -80 123
-92 178 -91 399 -59 578 85 74 59 114 118 128 190 7 34 23 72 40 92 77 98 88
178 44 301 -25 70 -26 74 -14 183 6 61 14 144 17 184 5 66 8 72 28 72 41 0 73
-112 99 -352 8 -72 17 -133 20 -136 11 -11 6 123 -9 222 -8 57 -24 134 -34
172 -23 82 -21 85 64 83 67 -2 141 17 262 67 45 19 84 34 86 34 2 0 3 -64 3
-142 -1 -107 3 -157 16 -198 22 -74 87 -318 107 -405 9 -38 15 -93 13 -122
l-3 -52 -72 34 c-91 43 -116 73 -206 247 -64 124 -71 143 -71 195 0 69 17 107
49 111 48 7 119 -99 106 -158 -7 -30 -24 -41 -26 -17 -1 6 -2 19 -3 27 -1 10
-12 15 -31 15 -23 0 -32 -6 -39 -27 -21 -60 69 -117 133 -84 33 17 41 33 48
97 6 53 -11 122 -40 163 -30 43 -117 79 -168 71 -61 -11 -96 -45 -109 -112
-21 -99 9 -212 79 -305 35 -47 41 -62 41 -105 0 -77 -54 -233 -80 -233 -28 0
-55 82 -90 275 -19 103 -20 106 -15 38 12 -176 56 -331 115 -411 34 -46 175
-115 234 -115 81 0 190 68 201 126 16 84 -27 311 -112 592 -45 149 -61 258
-60 398 1 104 2 108 24 113 27 7 38 24 47 78 9 45 -1 56 -51 56 -29 0 -32 3
-38 42 -4 24 -32 128 -61 232 -30 105 -54 198 -54 208 0 10 10 23 23 28 16 6
18 9 5 9 -10 1 -24 11 -32 24 -33 50 -102 492 -93 592 4 41 30 125 82 260 153
401 242 735 290 1085 37 271 44 310 76 423 11 37 23 67 27 67 4 0 26 -22 49
-49 39 -45 42 -51 33 -82 -15 -50 -13 -58 19 -90 29 -29 80 -39 108 -21 54 34
16 172 -47 172 -19 0 -20 7 -21 143 0 146 -3 192 -20 286 -5 30 -9 73 -9 94
l0 40 52 -74 c88 -127 203 -259 263 -302 l30 -22 -30 36 c-16 20 -67 78 -113
130 -69 79 -222 288 -222 304 0 3 8 5 18 5 9 0 41 13 70 30 l53 29 -21 -33
c-26 -43 -26 -66 0 -66 29 0 74 25 119 66 l39 34 22 -92 c26 -106 86 -281 132
-381 l31 -67 -23 -25 c-27 -29 -29 -62 -5 -98 12 -18 26 -27 45 -27 28 0 60
27 60 51 0 12 2 11 11 -1 13 -19 2 48 -17 105 -8 22 -12 28 -9 13 5 -24 3 -26
-23 -19 -24 6 -32 21 -69 117 -37 96 -54 174 -38 174 4 0 19 -7 35 -15 23 -12
33 -27 45 -73 9 -31 21 -68 26 -82 l9 -25 -5 25 c-9 42 -18 130 -13 130 2 0
31 -11 64 -24 47 -19 177 -46 223 -46 5 0 11 -13 14 -28 10 -50 93 -70 121
-30 43 60 -15 150 -75 117 -17 -9 -30 -2 -89 46 -115 94 -250 249 -250 287 0
7 -7 23 -15 35 -14 20 -13 21 23 20 74 -1 275 64 327 107 18 15 17 15 -20 0
-128 -53 -296 -89 -359 -77 -14 3 -26 7 -26 8 0 2 14 30 30 63 17 34 30 67 30
75 0 7 11 24 24 37 l25 23 81 -17 c44 -9 99 -16 123 -16 23 0 59 -3 80 -6 34
-6 37 -9 37 -39 0 -24 6 -34 25 -43 56 -25 98 -9 115 43 24 73 -44 112 -111
64 l-29 -21 -146 25 c-80 14 -148 28 -152 32 -4 3 15 26 41 50 26 25 47 51 47
58 0 7 11 41 25 76 40 98 57 187 57 301 0 116 -13 188 -42 235 -10 16 -49 57
-85 90 -50 45 -80 85 -122 160 -69 122 -148 232 -221 305 -30 30 -93 107 -140
170 -155 208 -205 250 -386 324 -120 49 -132 56 -90 56 17 0 37 -8 47 -20 21
-25 53 -25 95 0 22 14 32 27 32 44 0 49 -82 75 -122 39 -17 -15 -23 -15 -91 1
-39 9 -90 25 -112 36 l-40 18 65 1 c36 1 92 8 124 16 37 10 76 13 106 9 40 -5
51 -3 69 15 37 37 26 68 -33 90 -24 10 -31 8 -59 -20 l-31 -32 -151 6 c-98 3
-174 12 -220 24 -67 17 -70 19 -77 54 -9 45 4 95 23 90 35 -10 87 -21 122 -26
31 -5 37 -10 37 -30 0 -26 33 -55 63 -55 30 0 72 27 85 55 32 69 -6 135 -89
155 -56 14 -111 55 -136 104 -12 22 -19 70 -23 161 -5 115 -10 139 -38 208
-31 75 -39 127 -26 161 10 26 27 18 60 -27 55 -74 67 -104 54 -142 -22 -65 19
-145 81 -160 43 -11 124 30 144 71 14 29 14 37 2 67 -19 45 -62 77 -103 77
-44 0 -64 9 -65 29 -1 9 -4 5 -8 -8 -9 -33 -27 -37 -41 -11 -10 18 -8 26 11
46 21 23 24 23 30 7 11 -31 22 94 15 172 -18 194 -87 297 -258 382 -72 36
-114 43 -177 32z m197 -65 c34 -19 62 -38 62 -43 0 -4 -17 -48 -39 -97 -39
-89 -98 -273 -121 -372 l-12 -53 -27 24 c-14 14 -41 32 -59 42 -33 16 -34 17
-27 68 10 75 50 235 92 365 40 127 30 122 131 66z m-288 -3 c0 -5 -15 -87 -34
-183 -19 -95 -36 -189 -38 -208 -2 -29 -7 -36 -28 -38 -14 -2 -38 -17 -53 -35
l-28 -32 6 55 c23 192 49 357 58 369 15 18 99 80 110 81 4 0 7 -4 7 -9z m495
-278 c5 -34 2 -53 -18 -95 -13 -29 -33 -63 -43 -75 l-19 -22 -33 30 -34 30 38
102 c20 56 44 115 52 132 l15 29 17 -44 c10 -25 21 -64 25 -87z m-444 -219
c88 -47 139 -104 194 -219 50 -106 65 -181 67 -343 1 -128 -2 -139 -59 -209
-42 -52 -87 -68 -157 -58 -28 4 -72 9 -98 10 -113 6 -249 107 -317 234 l-33
64 38 -8 c52 -9 51 -8 58 -67 10 -76 18 -86 45 -52 12 16 27 48 34 71 6 24 15
43 20 43 5 0 34 -7 64 -16 30 -9 57 -13 60 -10 4 3 -11 40 -31 81 -34 66 -37
77 -27 106 23 67 17 73 -46 39 l-58 -31 -20 23 c-11 13 -37 43 -57 68 l-38 44
0 -40 c0 -21 5 -66 10 -99 l10 -60 -36 -34 c-42 -39 -43 -38 -75 57 -28 83
-23 169 11 237 33 63 66 87 136 96 50 7 62 13 93 47 67 75 109 80 212 26z
m320 -193 l13 -44 -39 -34 -39 -34 -23 45 -23 46 37 55 c36 53 38 54 49 33 7
-13 18 -43 25 -67z m263 68 c31 -25 33 -35 6 -42 -27 -7 -27 -47 0 -54 20 -5
20 -7 4 -24 -10 -11 -35 -24 -56 -30 -49 -13 -83 6 -104 56 -18 44 -18 65 2
93 21 31 109 32 148 1z m24 -66 c-4 -22 -22 -20 -26 1 -2 10 3 16 13 16 10 0
15 -7 13 -17z m-260 -275 c10 -45 9 -60 -10 -130 -12 -44 -26 -77 -32 -75 -6
2 -14 49 -18 113 -7 105 -6 110 15 126 12 10 24 18 27 18 3 0 11 -23 18 -52z
m-865 -175 c24 -22 64 -54 88 -69 62 -39 119 -95 119 -116 0 -31 -37 -58 -77
-58 -21 0 -53 -9 -70 -20 -46 -28 -45 -70 1 -116 l34 -34 -71 0 c-51 0 -68 -3
-60 -11 6 -6 39 -9 82 -7 39 1 71 2 71 1 0 -2 -31 -18 -69 -37 -67 -34 -228
-82 -239 -72 -6 7 6 11 75 26 28 6 59 17 69 24 26 19 11 46 -26 46 -18 0 -29
4 -25 10 3 6 16 10 27 10 12 0 18 3 15 7 -4 3 2 12 13 20 32 23 23 31 -27 26
l-48 -4 44 24 44 24 -42 16 c-46 19 -115 21 -175 7 l-40 -9 30 25 c16 14 46
37 68 51 55 39 74 106 40 144 -14 16 -13 26 18 121 l33 105 26 -46 c15 -26 47
-65 72 -88z m1010 19 l48 -18 -26 -14 c-15 -8 -31 -22 -36 -32 -5 -10 -19 -18
-31 -18 -18 0 -20 4 -14 38 3 20 6 43 6 50 0 15 -4 15 53 -6z m101 -75 c8 -22
6 -32 -11 -55 -37 -50 -111 -37 -98 17 17 68 90 94 109 38z m-1290 -38 c58
-45 11 -129 -72 -129 -38 0 -52 17 -52 61 0 29 7 43 31 63 37 31 58 33 93 5z
m-762 -47 c133 -24 183 -37 242 -66 41 -19 94 -38 118 -41 24 -3 60 -11 82
-18 l39 -11 -59 -17 c-33 -10 -48 -18 -36 -18 34 -1 129 27 185 56 47 23 98
25 112 3 9 -14 -59 -56 -148 -90 -48 -18 -85 -35 -83 -37 3 -3 56 9 118 27
125 35 217 46 263 32 l30 -10 -39 -17 c-46 -20 -158 -45 -202 -45 -47 0 -194
-54 -181 -66 3 -3 32 4 66 16 34 11 108 25 164 30 56 5 122 13 146 16 32 5 42
4 37 -5 -16 -25 -115 -64 -233 -91 -68 -15 -127 -31 -131 -35 -4 -4 2 -5 13
-2 11 3 49 8 85 12 36 4 106 17 156 31 172 45 181 25 14 -30 -199 -66 -280
-107 -280 -142 0 -24 66 -44 148 -44 82 0 132 -11 132 -30 0 -5 -18 -19 -40
-30 -65 -33 -143 -25 -355 38 -64 19 -198 83 -234 112 -42 34 -81 96 -81 129
0 64 160 165 260 164 48 -1 51 1 27 9 -19 7 -48 6 -88 -1 -72 -12 -171 -77
-202 -132 -19 -32 -20 -41 -9 -77 7 -23 30 -58 55 -82 49 -49 191 -121 287
-145 36 -9 94 -26 130 -37 108 -34 192 -23 245 32 27 28 28 32 13 46 -20 21
-101 36 -153 29 -47 -6 -107 6 -112 22 -4 12 100 66 150 78 24 6 27 5 27 -19
0 -29 38 -60 67 -54 10 2 27 18 38 35 17 27 26 32 58 33 34 0 40 -4 52 -35 8
-19 14 -52 13 -74 -1 -22 5 -47 12 -56 22 -27 -2 -65 -42 -65 -37 0 -78 -33
-78 -63 0 -43 48 -69 95 -51 20 8 45 56 45 87 0 20 16 34 93 78 50 29 114 73
140 98 48 45 48 45 41 16 -11 -45 -9 -264 3 -312 8 -32 8 -52 -2 -80 -16 -46
-5 -73 30 -73 51 0 82 63 53 110 -13 20 -10 30 43 120 14 25 39 76 55 113 l29
68 11 -147 c10 -127 9 -151 -4 -174 -17 -30 -10 -78 14 -87 8 -3 26 -1 40 5
19 9 24 19 24 46 0 19 -4 38 -10 41 -10 6 32 131 50 149 7 7 11 -107 13 -309
2 -382 3 -461 6 -713 1 -107 1 -195 -1 -197 -12 -12 -397 -65 -458 -63 l-73 2
-14 35 c-15 35 -15 64 2 221 2 25 16 117 31 205 38 231 26 323 -54 439 -39 57
-221 188 -415 299 -92 53 -229 135 -303 182 -74 48 -168 102 -208 121 -40 19
-80 42 -89 52 -15 16 -13 17 31 15 l47 -2 -65 19 c-143 44 -362 168 -420 239
-45 54 -51 127 -15 174 39 53 174 56 437 9z m1703 -62 c8 -16 18 -49 21 -72 5
-37 2 -46 -19 -66 -56 -52 -314 -86 -358 -47 -20 19 -19 38 7 133 14 50 26 61
59 52 6 -2 43 -7 84 -12 80 -9 135 1 145 27 10 26 44 17 61 -15z m590 -14 c19
-14 19 -15 1 -35 -25 -27 -63 -27 -71 -1 -13 42 32 64 70 36z m-1139 -68 c14
-13 14 -19 1 -51 -9 -19 -25 -41 -37 -47 -32 -17 -86 -4 -110 27 -43 55 -3 97
83 90 27 -2 55 -11 63 -19z m1118 -104 c27 -27 15 -46 -38 -60 -31 -7 -46 6
-46 43 0 34 56 46 84 17z m-236 -52 c40 -11 79 -25 87 -32 15 -12 21 -50 9
-50 -13 0 -170 79 -189 95 l-20 16 20 -4 c11 -3 53 -14 93 -25z m215 -82 c4
-3 -3 -12 -16 -19 -34 -18 -77 1 -77 34 l0 25 43 -17 c23 -9 45 -19 50 -23z
m45 -36 c30 -21 26 -58 -6 -62 -42 -6 -69 37 -40 66 15 15 19 15 46 -4z
m-1270 -39 c-23 -33 -37 -44 -50 -39 -9 3 -26 1 -36 -5 -16 -8 -21 -5 -35 25
l-17 34 43 1 c32 0 95 15 124 28 2 1 -12 -19 -29 -44z m-254 26 c10 -15 -4
-40 -26 -47 -25 -7 -53 18 -45 40 7 17 62 22 71 7z m1596 -30 c0 -9 -14 -33
-31 -54 -30 -36 -31 -37 -60 -21 -17 8 -38 13 -47 11 -13 -4 -13 -5 3 -6 34
-2 65 -30 65 -58 0 -79 -123 -101 -142 -26 -6 24 24 73 44 73 6 0 4 -8 -5 -18
-18 -19 -23 -57 -9 -65 4 -3 7 9 7 26 0 29 3 32 31 35 27 3 34 -1 42 -25 7
-17 11 -21 11 -10 1 21 -33 56 -56 59 -10 0 -25 1 -33 2 -11 1 -16 15 -18 49
-3 45 -2 47 23 47 18 0 28 -7 35 -24 23 -61 102 -51 108 12 3 28 6 31 18 21 8
-6 14 -19 14 -28z m-1411 -103 c-15 -29 -23 -37 -29 -28 -14 23 11 70 36 70
11 0 10 -9 -7 -42z m-51 -155 c2 -14 -5 -27 -21 -38 -44 -29 -83 9 -46 46 26
26 63 22 67 -8z m1176 17 c33 -12 33 -37 2 -52 -35 -16 -56 -4 -56 32 0 33 11
37 54 20z m225 -214 c22 -28 56 -91 76 -141 35 -84 73 -175 115 -270 10 -22
25 -64 35 -93 9 -29 19 -52 21 -49 4 4 -28 101 -64 192 -60 152 -73 189 -70
201 5 21 286 -259 376 -374 47 -60 48 -65 26 -107 -14 -27 -33 -105 -79 -325
-7 -36 -14 -62 -14 -57 -1 4 -10 -2 -21 -13 -11 -11 -33 -20 -48 -20 -63 0
-206 63 -307 135 -110 79 -104 62 -115 301 -7 149 -15 235 -30 299 -15 63 -21
125 -22 206 -1 122 5 153 30 182 14 16 16 16 34 1 10 -10 36 -40 57 -68z
m-471 38 c2 -11 -4 -26 -12 -34 -13 -10 -17 -9 -25 11 -4 13 -6 30 -3 37 7 20
37 10 40 -14z m-558 -29 c0 -14 -9 -29 -20 -35 -17 -9 -20 -8 -20 10 0 29 19
62 31 55 5 -4 9 -17 9 -30z m208 -2 c3 -22 -22 -48 -38 -38 -14 8 -13 38 2 53
16 16 32 10 36 -15z m157 -13 c0 -16 -6 -26 -17 -28 -14 -3 -18 3 -18 28 0 25
4 31 18 28 11 -2 17 -12 17 -28z m757 -969 c40 -24 100 -54 133 -67 l60 -23
-85 -1 c-47 0 -94 -3 -105 -6 -14 -3 -36 10 -77 46 -32 29 -58 49 -58 45 0 -4
20 -30 44 -58 41 -46 44 -52 30 -71 -19 -28 -18 -53 4 -65 11 -6 59 -13 108
-17 l89 -6 -40 -44 c-22 -23 -55 -61 -74 -83 -18 -23 -36 -41 -40 -41 -4 0
-19 35 -35 78 -16 42 -42 102 -59 132 -27 46 -32 67 -34 130 -1 41 -5 97 -9
124 l-7 50 41 -40 c23 -22 74 -59 114 -83z m-1097 -466 c0 -294 -3 -358 -28
-585 -15 -140 -37 -287 -48 -326 -11 -39 -17 -77 -14 -85 3 -9 -6 -26 -20 -39
l-26 -25 -20 25 c-32 42 -95 172 -117 240 -63 198 -87 513 -56 733 14 100 68
254 120 343 28 47 43 52 154 50 l55 -1 0 -330z m763 309 c2 -1 7 -18 11 -36 8
-36 8 -53 -3 -663 -4 -203 -3 -392 2 -420 6 -35 10 62 14 320 3 204 10 380 15
393 8 21 12 15 37 -50 49 -127 126 -308 177 -416 l50 -105 -26 -116 c-14 -64
-43 -244 -65 -401 -62 -437 -120 -651 -320 -1185 -111 -293 -150 -432 -215
-755 -24 -124 -61 -301 -80 -395 -42 -200 -54 -268 -49 -276 3 -5 -262 -5
-341 0 -38 2 -46 14 -35 52 19 63 58 243 65 299 13 104 16 125 41 280 14 85
40 231 59 324 19 92 40 218 46 280 31 317 76 565 169 947 77 312 120 552 134
734 3 44 13 174 22 289 8 115 17 212 18 215 4 6 8 37 25 201 l7 65 7 -60 c5
-33 15 -118 23 -190 21 -171 55 -299 110 -413 49 -102 71 -122 28 -26 -69 154
-108 311 -133 535 -25 214 -38 305 -45 318 -4 5 -3 68 0 140 l7 131 121 -7
c67 -3 123 -7 124 -9z m1400 -140 c4 -39 -19 -64 -59 -64 -33 0 -44 17 -35 55
7 27 38 45 71 42 15 -1 21 -11 23 -33z m-2879 -19 c9 -9 -23 -65 -45 -80 -28
-18 -75 -20 -92 -3 -20 20 -14 65 11 83 17 12 34 15 72 10 27 -3 51 -8 54 -10z
m2803 -600 c25 -55 -34 -101 -76 -59 -20 19 -20 34 0 62 21 31 61 29 76 -3z
m-382 -235 c14 -26 3 -68 -22 -81 -15 -8 -24 -7 -39 7 -27 24 -22 68 9 72 12
2 22 8 22 13 0 16 19 10 30 -11z m-421 -161 c37 -40 35 -105 -4 -115 -35 -9
-64 4 -80 36 -20 39 -19 56 5 80 26 26 54 25 79 -1z m-1313 -235 c18 -69 -48
-102 -81 -40 -21 38 -15 63 17 75 30 11 56 -3 64 -35z m325 -114 c30 -17 23
-72 -12 -91 -46 -24 -80 41 -42 83 19 21 27 22 54 8z m606 -2546 c12 -32 -10
-66 -51 -81 -22 -7 -47 -19 -55 -27 -9 -7 -61 -28 -116 -46 -77 -26 -117 -34
-177 -34 -42 -1 -78 1 -81 4 -2 3 -2 21 0 40 l5 35 126 35 c70 19 165 46 212
61 100 32 128 35 137 13z m-757 -80 c239 -5 298 -24 260 -84 -15 -24 -180 -15
-226 12 -28 17 -58 22 -137 26 -105 4 -147 18 -147 48 0 13 6 15 33 9 17 -4
115 -9 217 -11z m588 -318 c70 -37 108 -118 95 -202 -9 -63 -19 -74 -63 -74
-37 0 -80 26 -80 48 0 14 22 37 26 27 19 -44 32 -60 49 -60 40 0 42 96 4 165
-21 37 -75 80 -100 80 -43 0 -86 -104 -73 -178 3 -21 30 -80 59 -132 29 -52
61 -116 72 -141 26 -58 84 -115 149 -146 68 -31 134 -102 134 -143 0 -49 -24
-83 -86 -124 -56 -38 -59 -38 -105 -28 -44 10 -128 47 -201 88 -35 19 -35 31
3 112 63 136 85 293 43 309 -24 9 -83 117 -100 183 -35 136 6 230 101 230 25
0 58 -6 73 -14z m-421 -347 c7 -72 -17 -145 -62 -193 -24 -25 -37 -52 -45 -90
-21 -102 -97 -183 -238 -253 -76 -38 -105 -47 -155 -50 -45 -2 -55 0 -37 6 14
5 39 10 55 10 33 2 87 31 188 101 107 74 169 190 181 340 3 42 18 98 43 159
l38 93 13 -33 c8 -19 17 -59 19 -90z"/>
<path d="M3506 8700 c-59 -19 -108 -50 -56 -36 14 4 66 18 115 31 82 21 86 23
45 24 -25 0 -71 -9 -104 -19z"/>
<path d="M3593 8610 c-42 -19 -69 -40 -83 -62 -22 -37 -26 -53 -9 -43 6 4 32
8 57 9 26 2 61 9 77 16 27 12 28 14 9 17 -30 5 -38 40 -13 53 14 8 19 7 19 -1
0 -8 4 -8 15 1 18 15 20 40 3 40 -7 0 -41 -13 -75 -30z m1 -46 c9 -24 8 -26
-14 -14 -11 6 -18 15 -15 21 9 14 22 11 29 -7z m-33 -42 c-7 -2 -19 -1 -29 3
-14 5 -14 7 -2 15 9 5 20 4 28 -3 10 -8 11 -12 3 -15z"/>
<path d="M3701 8391 c-29 -57 -145 -131 -251 -162 -92 -26 -103 -62 -33 -109
53 -36 80 -36 176 0 104 39 181 150 175 252 -3 46 -6 53 -25 56 -17 3 -27 -6
-42 -37z m46 -40 c-12 -101 -83 -187 -178 -215 -70 -21 -107 -20 -146 4 -52
31 -43 46 48 73 82 25 209 105 238 150 33 51 45 47 38 -12z"/>
<path d="M3692 8300 c-27 -34 -126 -85 -199 -102 -30 -7 -53 -18 -53 -25 0
-17 -2 -18 107 19 76 25 106 40 140 73 24 23 43 47 43 53 0 19 -13 13 -38 -18z"/>
<path d="M3482 8400 c-41 -38 -17 -110 37 -110 52 0 85 74 51 114 -18 22 -62
20 -88 -4z m83 -29 c0 -25 -7 -39 -28 -54 -24 -18 -29 -19 -41 -7 -41 43 -14
105 42 98 23 -3 27 -8 27 -37z"/>
<path d="M2732 8098 c-15 -15 -16 -35 -2 -43 5 -3 7 0 4 8 -3 8 2 20 10 27 13
10 17 9 22 -3 3 -9 2 -21 -2 -28 -4 -8 -3 -9 4 -5 7 4 12 18 12 32 0 26 -27
33 -48 12z"/>
<path d="M4280 7460 c0 -5 5 -10 11 -10 5 0 7 5 4 10 -3 6 -8 10 -11 10 -2 0
-4 -4 -4 -10z"/>
<path d="M4651 6540 c0 -8 4 -22 9 -30 12 -18 12 -2 0 25 -6 13 -9 15 -9 5z"/>
<path d="M4741 6280 c0 -8 4 -22 9 -30 12 -18 12 -2 0 25 -6 13 -9 15 -9 5z"/>
<path d="M4770 6195 c0 -5 5 -17 10 -25 5 -8 10 -10 10 -5 0 6 -5 17 -10 25
-5 8 -10 11 -10 5z"/>
<path d="M4164 4826 c-42 -18 -61 -65 -44 -107 45 -107 174 -49 140 63 -7 26
-19 42 -36 48 -14 6 -26 10 -27 10 -1 -1 -16 -7 -33 -14z m75 -47 c22 -62 -27
-116 -76 -84 -43 29 -38 91 11 112 31 14 53 5 65 -28z"/>
<path d="M637 8686 c-223 -80 -276 -449 -88 -619 146 -131 347 -58 411 150 83
270 -107 546 -323 469z m141 -40 c109 -57 163 -261 112 -427 -27 -90 -90 -162
-153 -173 -53 -10 -117 21 -157 75 -110 152 -73 456 63 523 40 19 99 20 135 2z"/>
<path d="M440 7780 c0 -6 11 -15 25 -20 14 -5 30 -21 35 -35 6 -15 10 -140 10
-285 0 -145 -4 -270 -10 -285 -5 -14 -21 -30 -35 -35 -50 -19 -26 -30 65 -30
73 0 90 3 90 15 0 8 -8 15 -19 15 -39 0 -46 26 -50 181 -2 82 1 149 5 148 5 0
45 -43 89 -96 44 -52 109 -126 143 -164 35 -38 59 -69 53 -69 -6 0 -11 -7 -11
-15 0 -12 14 -15 70 -15 56 0 70 3 70 15 0 8 -8 15 -17 15 -37 0 -84 43 -216
198 l-136 161 147 139 c81 76 155 141 165 145 40 15 14 27 -59 27 -56 0 -75
-3 -72 -12 3 -7 14 -14 26 -16 12 -2 22 -6 22 -9 0 -8 -261 -277 -273 -282 -6
-2 -8 48 -5 127 4 135 12 162 49 162 11 0 19 7 19 15 0 12 -17 15 -90 15 -55
0 -90 -4 -90 -10z"/>
<path d="M2745 7050 c-4 -23 -5 -43 -2 -46 2 -3 7 14 11 37 4 23 5 44 2 46 -2
2 -7 -14 -11 -37z"/>
<path d="M490 6865 c0 -8 9 -15 21 -15 42 0 49 -48 49 -327 0 -275 -5 -305
-48 -311 -12 -2 -22 -10 -22 -18 0 -12 33 -14 200 -14 225 0 207 -7 225 80 l7
35 -17 -24 c-28 -37 -75 -51 -179 -51 -84 0 -97 2 -106 19 -5 11 -10 81 -10
156 l0 136 118 -3 c110 -3 118 -4 127 -25 17 -40 25 -25 25 52 0 43 -4 75 -10
75 -5 0 -10 -6 -10 -14 0 -33 -41 -46 -147 -46 l-103 0 0 135 0 135 123 0
c107 0 126 -2 140 -18 10 -10 17 -26 17 -35 0 -9 5 -17 10 -17 6 0 10 25 10
55 l0 55 -210 0 c-180 0 -210 -2 -210 -15z"/>
<path d="M450 5961 c0 -5 9 -12 19 -16 35 -11 41 -58 41 -326 0 -266 -5 -307
-40 -316 -11 -3 -20 -12 -20 -19 0 -11 18 -14 75 -14 60 0 75 3 75 15 0 8 -7
15 -15 15 -27 0 -35 39 -35 175 l0 136 75 -3 76 -3 63 -140 c86 -193 87 -195
147 -195 27 0 49 3 49 8 0 4 -21 25 -48 48 -49 42 -88 109 -123 212 -24 69
-24 82 -1 82 30 0 97 54 115 93 42 88 7 184 -82 230 -53 26 -60 27 -213 27
-91 0 -158 -4 -158 -9z m319 -46 c41 -21 77 -68 85 -110 9 -49 -26 -122 -71
-148 -35 -20 -163 -34 -207 -23 l-26 6 0 139 c0 76 3 141 7 144 13 14 183 7
212 -8z"/>
<path d="M2380 5873 c-18 -48 -39 -104 -46 -123 -124 -335 -450 -1305 -522
-1550 -231 -786 -302 -1315 -237 -1768 16 -117 61 -304 93 -389 17 -46 19 -48
52 -45 65 5 245 -27 400 -72 85 -24 196 -56 246 -69 l91 -24 39 36 c158 142
170 154 119 115 -27 -21 -72 -58 -100 -81 -27 -24 -53 -43 -57 -43 -14 0 -37
106 -62 285 -30 215 -93 705 -101 790 -3 33 -8 80 -10 105 -12 115 -15 139
-19 200 -3 36 -8 106 -11 155 -4 50 -8 108 -10 130 -2 22 -7 94 -11 160 -3 66
-10 165 -14 220 -9 109 -5 1122 4 1195 4 25 15 92 26 150 56 291 84 418 124
555 25 82 43 151 41 153 -1 2 -17 -37 -35 -85z"/>
<path d="M2420 5361 c-51 -11 -76 -27 -89 -59 -24 -57 24 -111 85 -96 50 13
105 144 67 158 -8 4 -18 5 -21 5 -4 -1 -23 -4 -42 -8z m56 -25 c9 -23 -31
-100 -59 -115 -25 -13 -29 -13 -52 9 -29 27 -31 47 -9 78 27 39 109 58 120 28z"/>
<path d="M5121 4944 c0 -11 3 -14 6 -6 3 7 2 16 -1 19 -3 4 -6 -2 -5 -13z"/>
<path d="M5131 4904 c0 -11 3 -14 6 -6 3 7 2 16 -1 19 -3 4 -6 -2 -5 -13z"/>
<path d="M5141 4864 c0 -11 3 -14 6 -6 3 7 2 16 -1 19 -3 4 -6 -2 -5 -13z"/>
<path d="M6160 4775 c0 -3 26 -31 58 -63 48 -46 64 -72 90 -137 51 -133 51
-129 -3 -155 -64 -31 -97 -78 -103 -145 -6 -76 28 -133 100 -169 49 -25 60
-26 210 -26 145 0 191 8 139 25 -35 11 -41 58 -41 326 0 266 5 307 40 316 11
3 20 12 20 19 0 11 -18 14 -75 14 -60 0 -75 -3 -75 -15 0 -8 7 -15 15 -15 27
0 35 -39 35 -175 l0 -136 -75 3 -75 3 -60 134 c-88 197 -91 201 -151 201 -27
0 -49 -2 -49 -5z m405 -505 l0 -145 -85 -3 c-104 -4 -120 0 -165 39 -48 42
-62 97 -40 154 30 79 85 106 210 102 l80 -2 0 -145z"/>
<path d="M5178 4680 c13 -151 6 -645 -12 -860 -55 -672 -195 -1490 -255 -1490
-4 0 -16 10 -27 21 -41 46 -220 156 -284 173 -14 4 16 -13 67 -38 90 -45 196
-133 235 -195 l15 -25 64 42 c35 23 116 73 179 111 63 39 123 76 133 83 15 11
20 42 32 173 60 686 32 1209 -100 1860 -45 220 -56 256 -47 145z"/>
<path d="M6221 3848 c-5 -13 -12 -39 -16 -58 -7 -34 -6 -35 10 -12 30 41 67
52 174 52 89 0 101 -2 111 -19 5 -11 10 -81 10 -155 l0 -136 -106 0 c-107 0
-144 9 -144 35 0 8 -4 15 -10 15 -6 0 -10 -32 -10 -75 0 -43 4 -75 10 -75 6 0
10 6 10 14 0 33 41 46 147 46 l103 0 0 -135 0 -135 -123 0 c-107 0 -126 2
-140 18 -10 10 -17 26 -17 35 0 9 -4 17 -10 17 -5 0 -10 -25 -10 -55 l0 -55
210 0 c173 0 210 2 210 14 0 8 -11 17 -24 20 -41 10 -46 49 -46 325 0 273 5
303 48 309 12 2 22 10 22 18 0 12 -33 14 -200 14 -199 0 -201 0 -209 -22z"/>
<path d="M6150 2950 c0 -5 20 -18 44 -29 34 -15 74 -54 185 -182 l140 -164
-142 -138 c-78 -76 -153 -142 -166 -148 -40 -16 -10 -30 60 -27 60 3 85 19 39
26 -11 2 -20 6 -20 9 0 8 260 277 272 282 7 2 9 -41 6 -127 -4 -135 -12 -162
-49 -162 -11 0 -19 -7 -19 -15 0 -12 16 -15 84 -15 87 0 117 13 71 30 -14 5
-30 21 -35 35 -14 36 -13 551 1 576 5 11 21 24 35 29 49 19 24 30 -66 30 -73
0 -90 -3 -90 -15 0 -8 8 -15 19 -15 39 0 46 -26 49 -182 2 -81 0 -148 -5 -147
-4 0 -44 43 -88 96 -44 52 -109 127 -145 166 -39 42 -60 72 -52 75 33 11 5 22
-58 22 -38 0 -70 -4 -70 -10z"/>
<path d="M4323 2573 c9 -2 23 -2 30 0 6 3 -1 5 -18 5 -16 0 -22 -2 -12 -5z"/>
<path d="M4243 2563 c9 -2 25 -2 35 0 9 3 1 5 -18 5 -19 0 -27 -2 -17 -5z"/>
<path d="M4381 2566 c2 -2 31 -6 64 -9 39 -4 51 -3 35 2 -25 9 -107 15 -99 7z"/>
<path d="M4198 2553 c7 -3 16 -2 19 1 4 3 -2 6 -13 5 -11 0 -14 -3 -6 -6z"/>
<path d="M4158 2543 c7 -3 16 -2 19 1 4 3 -2 6 -13 5 -11 0 -14 -3 -6 -6z"/>
<path d="M4525 2540 c11 -5 27 -9 35 -9 9 0 8 4 -5 9 -11 5 -27 9 -35 9 -9 0
-8 -4 5 -9z"/>
<path d="M3215 2380 c-3 -5 -2 -10 4 -10 5 0 13 5 16 10 3 6 2 10 -4 10 -5 0
-13 -4 -16 -10z"/>
<path d="M3128 2334 c-27 -13 -48 -27 -48 -29 0 -3 23 6 50 20 28 14 50 28 50
30 0 7 1 7 -52 -21z"/>
<path d="M3024 2274 c-18 -14 -18 -15 4 -4 12 6 22 13 22 15 0 8 -5 6 -26 -11z"/>
<path d="M2943 2230 c-18 -11 -33 -22 -33 -25 0 -2 16 5 35 16 19 12 35 23 35
25 0 6 -3 5 -37 -16z"/>
<path d="M2865 2174 l-30 -26 33 22 c17 12 32 23 32 26 0 7 -4 5 -35 -22z"/>
<path d="M2809 2133 c-13 -16 -12 -17 4 -4 16 13 21 21 13 21 -2 0 -10 -8 -17
-17z"/>
<path d="M2735 2079 c-61 -50 -80 -70 -40 -41 37 25 102 81 95 81 -3 0 -27
-18 -55 -40z"/>
<path d="M6312 2024 c-103 -51 -162 -152 -170 -293 -6 -106 13 -183 64 -258
149 -220 430 -122 474 165 21 134 -21 265 -111 346 -80 72 -166 85 -257 40z
m188 -52 c77 -61 122 -215 101 -345 -27 -164 -114 -254 -226 -233 -126 24
-202 251 -146 435 24 78 73 144 126 168 42 18 103 8 145 -25z"/>
<path d="M6363 1120 c-59 -36 -63 -54 -63 -315 0 -251 -6 -290 -49 -317 -12
-7 -21 -21 -21 -31 0 -16 9 -17 97 -15 82 3 98 6 101 20 2 9 -5 19 -18 23 -44
14 -50 48 -50 305 l0 241 25 24 c45 46 93 29 120 -42 22 -60 32 -73 56 -73 22
0 42 41 32 67 -14 39 -65 104 -93 118 -40 21 -99 19 -137 -5z"/>
<path d="M60 198 c0 -28 63 -100 109 -125 l44 -23 3347 0 3347 0 44 23 c46 25
109 97 109 125 -1 11 -7 6 -17 -13 -23 -44 -63 -84 -105 -106 -36 -19 -110
-19 -3378 -19 -3268 0 -3342 0 -3378 19 -42 22 -82 62 -105 106 -10 19 -16 24
-17 13z"/>
</g>
</svg>
