<?xml version="1.0" standalone="no"?>
<!DOCTYPE svg PUBLIC "-//W3C//DTD SVG 20010904//EN"
 "http://www.w3.org/TR/2001/REC-SVG-20010904/DTD/svg10.dtd">
<svg version="1.0" xmlns="http://www.w3.org/2000/svg"
 width="1707.000000pt" height="1707.000000pt" viewBox="0 0 1707.000000 1707.000000"
 preserveAspectRatio="xMidYMid meet">
<metadata>
Created by potrace 1.14, written by Peter Selinger 2001-2017
</metadata>
<g transform="translate(0.000000,1707.000000) scale(0.100000,-0.100000)"
fill="#000000" stroke="none">
<path d="M8520 17036 c0 -8 -4 -16 -8 -18 -4 -1 -18 -21 -31 -43 -93 -158
-314 -482 -447 -655 -70 -91 -130 -167 -133 -170 -4 -3 -42 -48 -85 -100 -44
-52 -103 -122 -132 -155 -29 -33 -62 -70 -73 -83 -160 -187 -792 -832 -1086
-1107 -70 -66 -144 -136 -164 -155 -83 -78 -204 -190 -390 -360 -51 -47 -106
-96 -121 -110 -25 -24 -165 -150 -226 -206 -16 -15 -47 -43 -69 -63 -22 -21
-94 -86 -160 -146 -155 -140 -321 -292 -361 -330 -18 -16 -63 -58 -100 -91
-38 -34 -81 -72 -95 -85 -14 -13 -72 -67 -129 -119 -57 -52 -136 -125 -174
-161 -39 -37 -89 -83 -111 -103 -410 -381 -1051 -1024 -1315 -1321 -30 -33
-56 -62 -59 -65 -3 -3 -33 -36 -66 -75 -33 -38 -62 -72 -65 -75 -18 -16 -265
-317 -357 -436 -661 -850 -1025 -1577 -1207 -2414 -14 -68 -20 -102 -41 -250
-33 -226 -37 -670 -9 -870 23 -161 76 -377 129 -527 20 -54 37 -105 39 -113 8
-30 87 -202 141 -307 92 -178 203 -348 338 -516 84 -104 299 -326 397 -410 30
-26 66 -57 80 -68 14 -12 79 -62 145 -111 452 -337 1008 -574 1595 -682 74
-14 160 -28 190 -31 30 -4 66 -8 80 -10 14 -2 63 -6 110 -10 47 -3 105 -8 130
-10 58 -6 402 -6 455 0 22 2 78 6 125 9 47 3 94 8 105 10 11 2 47 7 80 11 32
4 66 8 75 10 8 1 38 6 65 9 28 4 57 9 65 11 8 2 31 7 50 10 179 29 565 146
745 225 22 10 65 28 95 41 290 122 692 378 920 584 99 91 342 339 388 398 25
31 47 55 49 53 4 -3 -8 -106 -21 -186 -3 -14 -7 -45 -10 -70 -4 -25 -8 -56
-10 -70 -5 -24 -8 -49 -21 -135 -24 -158 -94 -551 -136 -760 -28 -137 -53
-261 -55 -275 -3 -14 -9 -41 -14 -60 -5 -19 -11 -46 -14 -60 -2 -14 -12 -54
-21 -90 -9 -36 -19 -76 -22 -90 -3 -22 -47 -194 -98 -385 -113 -426 -314
-1010 -466 -1353 -11 -26 -32 -74 -47 -107 -50 -115 -226 -460 -279 -549 -29
-49 -53 -90 -53 -92 0 -23 -293 -447 -380 -549 -323 -379 -607 -612 -950 -778
-200 -97 -457 -179 -635 -202 -100 -13 -81 -24 45 -27 115 -3 6711 -2 7444 1
176 0 317 3 315 5 -2 3 -22 7 -44 9 -131 17 -435 95 -495 128 -8 5 -44 20 -80
35 -357 145 -771 465 -1040 803 -19 24 -42 51 -50 60 -8 9 -40 50 -71 91 -577
771 -1023 1902 -1330 3375 -37 178 -91 452 -102 520 -20 120 -67 407 -72 440
-3 22 -12 83 -20 135 -8 52 -17 118 -20 145 -4 28 -10 69 -15 92 -4 23 -5 44
-3 47 3 2 45 -44 95 -102 137 -161 302 -323 489 -477 145 -120 369 -274 534
-365 168 -93 425 -207 575 -255 30 -10 64 -21 75 -25 105 -40 320 -96 485
-126 14 -2 48 -9 75 -14 28 -5 68 -12 90 -15 22 -3 54 -8 70 -10 221 -35 837
-42 1002 -11 10 2 43 7 73 10 30 4 66 8 80 11 14 2 41 6 60 9 29 4 248 49 300
61 99 23 306 85 408 124 28 10 52 17 52 14 0 -3 6 -1 13 4 6 5 50 25 97 43
185 73 491 237 667 356 69 48 224 163 233 174 3 3 19 16 35 29 74 56 231 207
387 372 10 10 59 69 109 131 340 421 554 912 633 1449 23 158 24 670 1 789 -3
13 -7 46 -10 74 -5 49 -19 134 -30 186 -3 14 -10 48 -15 75 -13 75 -64 274
-105 410 -97 318 -272 721 -444 1019 -28 49 -51 90 -51 92 0 7 -113 185 -215
339 -126 190 -239 347 -388 540 -93 119 -135 171 -250 310 -37 44 -315 363
-342 391 -5 6 -66 72 -134 145 -153 165 -817 827 -1006 1004 -76 72 -169 158
-205 192 -36 34 -76 71 -88 81 -26 23 -207 189 -236 217 -22 21 -322 294 -390
355 -21 19 -54 49 -71 65 -18 17 -66 60 -107 97 -40 36 -87 79 -104 95 -45 42
-206 189 -230 210 -21 18 -159 143 -299 273 -39 36 -100 92 -136 125 -385 353
-819 777 -1134 1106 -275 288 -552 605 -715 817 -14 18 -32 41 -40 52 -8 10
-22 28 -30 40 -24 34 -90 123 -106 144 -26 31 -205 305 -274 418 -60 99 -90
130 -90 94z"/>
</g>
</svg>
